<?xml version="1.0" ?><svg viewBox="0 0 18.62 23.75" xmlns="http://www.w3.org/2000/svg"><title/><g data-name="Camada 2" id="Camada_2"><g data-name="Camada 1" id="Camada_1-2"><path d="M18.12,0H.5A.5.5,0,0,0,0,.5V23.25a.5.5,0,0,0,.5.5H18.12a.5.5,0,0,0,.5-.5V.5A.5.5,0,0,0,18.12,0Zm-.5,22.75H1V1H17.62Z"/><path d="M4.06,7.05h10.5a.5.5,0,0,0,.5-.5V3.68a.5.5,0,0,0-.5-.5H4.06a.5.5,0,0,0-.5.5V6.55A.5.5,0,0,0,4.06,7.05Zm.5-2.87h9.5V6.05H4.56Z"/><circle cx="4.72" cy="10.65" r="0.81"/><circle cx="7.78" cy="10.65" r="0.81"/><circle cx="10.84" cy="10.65" r="0.81"/><circle cx="13.91" cy="10.65" r="0.81"/><circle cx="4.72" cy="14.45" r="0.82"/><circle cx="7.78" cy="14.45" r="0.82"/><circle cx="10.84" cy="14.45" r="0.82"/><circle cx="13.91" cy="14.45" r="0.82"/><circle cx="4.72" cy="18.25" r="0.82"/><circle cx="7.78" cy="18.25" r="0.82"/><circle cx="10.84" cy="18.25" r="0.82"/><circle cx="13.91" cy="18.25" r="0.82"/></g></g></svg>