<svg width="554" height="536" xmlns="http://www.w3.org/2000/svg" xmlns:xlink="http://www.w3.org/1999/xlink" xml:space="preserve" overflow="hidden"><defs><clipPath id="clip0"><rect x="981" y="1299" width="554" height="536"/></clipPath><clipPath id="clip1"><rect x="1131" y="1526" width="340" height="65"/></clipPath><clipPath id="clip2"><rect x="877" y="1306" width="340" height="65"/></clipPath><clipPath id="clip3"><rect x="1172" y="1299" width="340" height="65"/></clipPath><clipPath id="clip4"><rect x="1299" y="1770" width="340" height="65"/></clipPath><clipPath id="clip5"><rect x="969" y="1766" width="340" height="65"/></clipPath></defs><g clip-path="url(#clip0)" transform="translate(-981 -1299)"><path d="M1313.5 1410.5C1313.5 1414.92 1309.69 1418.5 1305 1418.5 1300.31 1418.5 1296.5 1414.92 1296.5 1410.5 1296.5 1406.08 1300.31 1402.5 1305 1402.5 1309.69 1402.5 1313.5 1406.08 1313.5 1410.5Z" stroke="#000000" stroke-width="1.14583" stroke-linejoin="round" stroke-miterlimit="10" fill-rule="evenodd"/><path d="M1093.5 1412.5C1093.5 1416.92 1089.92 1420.5 1085.5 1420.5 1081.08 1420.5 1077.5 1416.92 1077.5 1412.5 1077.5 1408.08 1081.08 1404.5 1085.5 1404.5 1089.92 1404.5 1093.5 1408.08 1093.5 1412.5Z" stroke="#000000" stroke-width="1.14583" stroke-linejoin="round" stroke-miterlimit="10" fill-rule="evenodd"/><path d="M1181.5 1724.5C1181.5 1728.92 1177.69 1732.5 1173 1732.5 1168.31 1732.5 1164.5 1728.92 1164.5 1724.5 1164.5 1720.08 1168.31 1716.5 1173 1716.5 1177.69 1716.5 1181.5 1720.08 1181.5 1724.5Z" stroke="#000000" stroke-width="1.14583" stroke-linejoin="round" stroke-miterlimit="10" fill-rule="evenodd"/><path d="M1404.5 1725.5C1404.5 1729.92 1400.69 1733.5 1396 1733.5 1391.31 1733.5 1387.5 1729.92 1387.5 1725.5 1387.5 1721.08 1391.31 1717.5 1396 1717.5 1400.69 1717.5 1404.5 1721.08 1404.5 1725.5Z" stroke="#000000" stroke-width="1.14583" stroke-linejoin="round" stroke-miterlimit="10" fill-rule="evenodd"/><g clip-path="url(#clip1)"><text font-family="Times New Roman,Times New Roman_MSFontService,sans-serif" font-weight="400" font-size="46" transform="matrix(1 0 0 1 1276.59 1575)">P1</text></g><path d="M1052.5 1382.5 1159.65 1758.8" stroke="#000000" stroke-width="1.14583" stroke-linejoin="round" stroke-miterlimit="10" fill="none" fill-rule="evenodd"/><path d="M1158.96 1757 1051 1649.04 1051 1379 1320.04 1379 1428 1486.96 1428 1757ZM1158.96 1757 1158.96 1486.96 1051 1379M1158.96 1486.96 1428 1486.96" stroke="#000000" stroke-width="2.29167" stroke-miterlimit="8" fill="none" fill-rule="evenodd"/><path d="M1322.5 1384.5 1428.9 1760.8" stroke="#000000" stroke-width="1.14583" stroke-linejoin="round" stroke-miterlimit="10" fill="none" fill-rule="evenodd"/><path d="M0 0 159.134 372.816" stroke="#000000" stroke-width="1.14583" stroke-linejoin="round" stroke-miterlimit="10" fill="none" fill-rule="evenodd" transform="matrix(-1 0 0 1 1319.63 1381.5)"/><path d="M1051.5 1377.5 1428.04 1756.68" stroke="#000000" stroke-width="1.14583" stroke-linejoin="round" stroke-miterlimit="10" fill="none" fill-rule="evenodd"/><path d="M1249.5 1567.5C1249.5 1571.92 1245.92 1575.5 1241.5 1575.5 1237.08 1575.5 1233.5 1571.92 1233.5 1567.5 1233.5 1563.08 1237.08 1559.5 1241.5 1559.5 1245.92 1559.5 1249.5 1563.08 1249.5 1567.5Z" stroke="#000000" stroke-width="1.14583" stroke-linejoin="round" stroke-miterlimit="10" fill-rule="evenodd"/><path d="M1085.5 1414.5 1171.98 1726.47" stroke="#000000" stroke-width="1.14583" stroke-linejoin="round" stroke-miterlimit="10" fill="none" fill-rule="evenodd"/><path d="M0 0 214.922 0.86145" stroke="#000000" stroke-width="1.14583" stroke-linejoin="round" stroke-miterlimit="10" fill="none" fill-rule="evenodd" transform="matrix(1 0 0 -1 1085.5 1410.36)"/><path d="M1308.5 1410.5 1397.56 1724.75" stroke="#000000" stroke-width="1.14583" stroke-linejoin="round" stroke-miterlimit="10" fill="none" fill-rule="evenodd"/><path d="M1173.5 1726.5 1396.98 1727.36" stroke="#000000" stroke-width="1.14583" stroke-linejoin="round" stroke-miterlimit="10" fill="none" fill-rule="evenodd"/><g clip-path="url(#clip2)"><text font-family="Times New Roman,Times New Roman_MSFontService,sans-serif" font-weight="400" font-size="46" transform="matrix(1 0 0 1 1022.65 1355)">P2</text></g><g clip-path="url(#clip3)"><text font-family="Times New Roman,Times New Roman_MSFontService,sans-serif" font-weight="400" font-size="46" transform="matrix(1 0 0 1 1317.62 1348)">P3</text></g><g clip-path="url(#clip4)"><text font-family="Times New Roman,Times New Roman_MSFontService,sans-serif" font-weight="400" font-size="46" transform="matrix(1 0 0 1 1444.64 1819)">P4</text></g><g clip-path="url(#clip5)"><text font-family="Times New Roman,Times New Roman_MSFontService,sans-serif" font-weight="400" font-size="46" transform="matrix(1 0 0 1 1115.13 1816)">P5</text></g></g></svg>