<?xml version="1.0" encoding="UTF-8" standalone="no"?>
<!DOCTYPE svg PUBLIC "-//W3C//DTD SVG 1.0//EN" "http://www.w3.org/TR/2001/REC-SVG-20010904/DTD/svg10.dtd">
<!-- Microsoft Visio 11.0, SVG Export, v1.0에서 생성되었습니다. force.svg Page-1 -->
<svg xmlns="http://www.w3.org/2000/svg" xmlns:xlink="http://www.w3.org/1999/xlink" xmlns:ev="http://www.w3.org/2001/xml-events"
		xmlns:v="http://schemas.microsoft.com/visio/2003/SVGExtensions/" width="7.87402in" height="7.87402in"
		viewBox="0 0 566.929 566.929" xml:space="preserve" color-interpolation-filters="sRGB" class="st5">
	<v:documentProperties v:langID="1042" v:metric="true" v:viewMarkup="false">
		<v:userDefs>
			<v:ud v:nameU="msvNoAutoConnect" v:val="VT0(0):26"/>
		</v:userDefs>
	</v:documentProperties>

	<style type="text/css">
	<![CDATA[
		.st1 {fill:url(#grad30-4);stroke:#000000;stroke-linecap:butt;stroke-width:0.25}
		.st2 {fill:url(#grad30-4);stroke:#000000;stroke-linecap:round;stroke-linejoin:round;stroke-width:0.25}
		.st3 {fill:#000000;stroke:#000000;stroke-linecap:round;stroke-linejoin:round;stroke-width:0.24}
		.st4 {fill:url(#grad30-4);stroke:none;stroke-linecap:round;stroke-linejoin:round;stroke-width:0.25}
		.st5 {fill:none;fill-rule:evenodd;font-size:12px;overflow:visible;stroke-linecap:square;stroke-miterlimit:3}
	]]>
	</style>

	<defs id="Patterns_And_Gradients">
		<linearGradient id="grad30-4" v:fillPattern="30" v:foreground="#000000" v:background="#000000" x1="0" y1="1" x2="0" y2="0">
			<stop offset="0" style="stop-color:#000000;stop-opacity:1"/>
			<stop offset="1" style="stop-color:#000000;stop-opacity:1"/>
		</linearGradient>
	</defs>
	<g v:mID="0" v:index="1" v:groupContext="foregroundPage">
		<v:userDefs>
			<v:ud v:nameU="msvThemeColors" v:val="VT0(36):26"/>
			<v:ud v:nameU="msvThemeEffects" v:val="VT0(16):26"/>
			<v:ud v:nameU="msvThemeOrder" v:val="VT0(0):26"/>
		</v:userDefs>
		<title>페이지-1</title>
		<v:pageProperties v:drawingScale="0.0393701" v:pageScale="0.0393701" v:drawingUnits="24" v:shadowOffsetX="9"
				v:shadowOffsetY="-9"/>
		<v:layer v:name="순서도" v:index="0"/>
		<g id="shape3-1" v:mID="3" v:groupContext="shape" transform="translate(25.7383,-106.189)">
			<title>시트.3</title>
			<v:userDefs>
				<v:ud v:nameU="msvThemeColors" v:val="VT0(36):26"/>
				<v:ud v:nameU="msvThemeEffects" v:val="VT0(16):26"/>
			</v:userDefs>
			<path d="M153.39 566.93 L8.51 566.93 C6.19 566.93 3.98 565.97 2.39 564.28 C0.81 562.58 0 560.31 0.16 557.99 L6.9 459.54
						 C7.12 456.28 9.23 453.43 12.29 452.29 C15.35 451.13 18.8 451.87 21.13 454.18 C37.14 470.06 58.38 478.8 80.95
						 478.8 C103.5 478.8 124.74 470.06 140.76 454.19 C144.05 450.94 149.34 450.96 152.59 454.24 C155.84 457.52
						 155.82 462.82 152.55 466.07 C133.37 485.07 107.95 495.53 80.96 495.53 C59.73 495.53 39.48 489.07 22.48 477.07
						 L17.48 550.19 L144.39 550.19 L140.66 499.73 C140.32 495.11 143.78 491.11 148.39 490.76 C152.96 490.43 157
						 493.88 157.35 498.49 L161.75 557.93 C161.92 560.25 161.12 562.53 159.54 564.24 C157.94 565.96 155.73 566.93
						 153.39 566.93 Z" class="st1"/>
		</g>
		<g id="shape4-5" v:mID="4" v:groupContext="shape" transform="translate(54.4139,-227.023)">
			<title>시트.4</title>
			<v:userDefs>
				<v:ud v:nameU="msvThemeColors" v:val="VT0(36):26"/>
				<v:ud v:nameU="msvThemeEffects" v:val="VT0(16):26"/>
			</v:userDefs>
			<path d="M52.27 566.93 C23.45 566.93 0 543.48 0 514.66 C0 494.66 11.13 476.72 29.06 467.83 C36.3 464.23 44.11 462.4 52.27
						 462.4 C81.09 462.4 104.54 485.85 104.54 514.67 C104.54 522.82 102.73 530.64 99.13 537.88 C90.21 555.8 72.26
						 566.93 52.27 566.93 ZM52.27 479.13 C46.72 479.13 41.42 480.38 36.5 482.81 C24.3 488.86 16.73 501.07 16.73
						 514.66 C16.73 534.25 32.67 550.19 52.27 550.19 C65.86 550.19 78.07 542.63 84.14 530.44 C86.58 525.52 87.81
						 520.22 87.81 514.66 C87.81 495.07 71.86 479.13 52.27 479.13 Z" class="st1"/>
		</g>
		<g id="shape5-8" v:mID="5" v:groupContext="shape" transform="translate(4.97573,-177.585)">
			<title>시트.5</title>
			<v:userDefs>
				<v:ud v:nameU="msvThemeColors" v:val="VT0(36):26"/>
				<v:ud v:nameU="msvThemeEffects" v:val="VT0(16):26"/>
			</v:userDefs>
			<path d="M101.71 566.93 C74.71 566.93 49.27 556.46 30.11 537.45 C10.69 518.22 0 492.57 0 465.22 C0 409.14 45.63 363.5
						 101.71 363.5 C113.18 363.5 124.47 365.4 135.24 369.16 C164.25 379.28 187.62 402.66 197.76 431.69 C197.76
						 431.69 197.76 431.69 197.76 431.69 C201.52 442.46 203.43 453.74 203.43 465.22 C203.43 492.57 192.73 518.23
						 173.3 537.46 C154.14 556.47 128.71 566.93 101.71 566.93 ZM101.71 380.23 C54.85 380.23 16.73 418.36 16.73
						 465.22 C16.73 488.06 25.68 509.49 41.9 525.56 C57.9 541.45 79.14 550.19 101.71 550.19 C124.26 550.19 145.51
						 541.46 161.52 525.58 C177.75 509.51 186.7 488.07 186.7 465.22 C186.7 455.62 185.11 446.19 181.96 437.2 C173.49
						 412.95 153.97 393.42 129.73 384.97 C120.74 381.82 111.31 380.23 101.71 380.23 Z" class="st1"/>
		</g>
		<g id="shape6-11" v:mID="6" v:groupContext="shape" transform="translate(54.4139,-227.023)">
			<title>시트.6</title>
			<v:userDefs>
				<v:ud v:nameU="msvThemeColors" v:val="VT0(36):26"/>
				<v:ud v:nameU="msvThemeEffects" v:val="VT0(16):26"/>
			</v:userDefs>
			<path d="M52.27 566.93 C23.45 566.93 0 543.48 0 514.66 C0 494.66 11.13 476.72 29.06 467.83 C36.3 464.23 44.11 462.4 52.27
						 462.4 C81.09 462.4 104.54 485.85 104.54 514.67 C104.54 522.82 102.73 530.64 99.13 537.88 C90.21 555.8 72.26
						 566.93 52.27 566.93 ZM52.27 479.13 C46.72 479.13 41.42 480.38 36.5 482.81 C24.3 488.86 16.73 501.07 16.73
						 514.66 C16.73 534.25 32.67 550.19 52.27 550.19 C65.86 550.19 78.07 542.63 84.14 530.44 C86.58 525.52 87.81
						 520.22 87.81 514.66 C87.81 495.07 71.86 479.13 52.27 479.13 Z" class="st1"/>
		</g>
		<g id="shape7-14" v:mID="7" v:groupContext="shape" transform="translate(128.691,-301.706)">
			<title>시트.7</title>
			<v:userDefs>
				<v:ud v:nameU="msvThemeColors" v:val="VT0(36):26"/>
				<v:ud v:nameU="msvThemeEffects" v:val="VT0(16):26"/>
			</v:userDefs>
			<path d="M66.16 566.93 C65.61 566.93 65.05 566.87 64.49 566.76 C61.59 566.18 59.23 564.11 58.26 561.32 C49.78 537.07
						 30.27 517.54 6.02 509.09 C3.24 508.12 1.17 505.75 0.59 502.86 C0 499.97 0.97 496.98 3.16 495 L92.86 413.4
						 C96.28 410.3 101.58 410.55 104.69 413.96 C107.79 417.38 107.54 422.68 104.12 425.79 L24.04 498.63 C43.16
						 508.39 58.95 524.18 68.73 543.32 L160.11 442.86 C139.77 434.46 124.6 416.53 119.97 394.31 C119.03 389.78
						 121.93 385.36 126.46 384.42 C130.98 383.47 135.42 386.38 136.36 390.91 C140.51 410.86 156.75 426.73 176.77
						 430.41 C179.76 430.96 182.21 433.09 183.19 435.97 C184.17 438.85 183.5 442.03 181.46 444.28 L72.38 564.2
						 C70.74 565.96 68.49 566.93 66.16 566.93 Z" class="st1"/>
		</g>
		<g id="shape8-17" v:mID="8" v:groupContext="shape" transform="translate(286.842,-459.619)">
			<title>시트.8</title>
			<v:userDefs>
				<v:ud v:nameU="msvThemeColors" v:val="VT0(36):26"/>
				<v:ud v:nameU="msvThemeEffects" v:val="VT0(16):26"/>
			</v:userDefs>
			<path d="M9.57 566.93 C7.63 566.93 5.67 566.25 4.09 564.87 L2.95 563.89 C1.21 562.37 0.17 560.2 0.08 557.89 C0 555.59
						 0.87 553.34 2.5 551.7 C4.06 550.12 6.22 549.2 8.45 549.19 C8.46 549.19 8.46 549.19 8.47 549.19 C10.69 549.19
						 12.84 550.04 14.42 551.61 C14.61 551.8 14.8 551.98 14.99 552.16 L15.38 552.54 C18.66 555.68 18.81 560.87
						 15.75 564.22 C14.09 566.02 11.85 566.93 9.57 566.93 Z" class="st1"/>
		</g>
		<g id="shape9-20" v:mID="9" v:groupContext="shape" transform="translate(247.242,-420.652)">
			<title>시트.9</title>
			<v:userDefs>
				<v:ud v:nameU="msvThemeColors" v:val="VT0(36):26"/>
				<v:ud v:nameU="msvThemeEffects" v:val="VT0(16):26"/>
			</v:userDefs>
			<path d="M67.48 566.93 C63.32 566.93 59.17 566.55 55.16 565.81 C28.13 560.83 7.02 540.2 1.41 513.26 C0.48 508.74 0 504.1
						 0 499.45 C0 462.26 30.27 431.99 67.48 431.99 C72.1 431.99 75.84 435.73 75.84 440.36 C75.84 444.98 72.1 448.72
						 67.48 448.72 C39.49 448.72 16.73 471.48 16.73 499.45 C16.73 502.96 17.09 506.46 17.8 509.85 C21.95 529.79
						 38.19 545.66 58.21 549.35 C61.22 549.91 64.34 550.19 67.48 550.19 C73.87 550.19 80.09 549.02 85.97 546.72
						 C98.3 541.89 108.46 532.18 113.84 520.06 C116.75 513.55 118.22 506.61 118.22 499.44 C118.22 487.79 114.16
						 476.41 106.81 467.4 C103.9 463.82 104.42 458.55 108.01 455.62 C111.58 452.71 116.85 453.23 119.78 456.82
						 C129.57 468.81 134.96 483.95 134.96 499.44 C134.96 508.98 133 518.2 129.14 526.86 C121.99 542.96 108.49
						 555.87 92.09 562.29 C84.25 565.38 75.96 566.93 67.48 566.93 Z" class="st1"/>
		</g>
		<g id="shape10-23" v:mID="10" v:groupContext="shape" transform="translate(332.587,-532.724)">
			<title>시트.10</title>
			<v:userDefs>
				<v:ud v:nameU="msvThemeColors" v:val="VT0(36):26"/>
				<v:ud v:nameU="msvThemeEffects" v:val="VT0(16):26"/>
			</v:userDefs>
			<path d="M8.37 566.93 C3.74 566.93 0 563.19 0 558.56 C0 553.94 3.74 550.19 8.37 550.19 L8.38 550.19 C13.01 550.19 16.75
						 553.94 16.75 558.56 C16.75 563.19 12.99 566.93 8.37 566.93 Z" class="st1"/>
		</g>
		<g id="shape11-26" v:mID="11" v:groupContext="shape" transform="translate(279.145,-452.555)">
			<title>시트.11</title>
			<v:userDefs>
				<v:ud v:nameU="msvThemeColors" v:val="VT0(36):26"/>
				<v:ud v:nameU="msvThemeEffects" v:val="VT0(16):26"/>
			</v:userDefs>
			<path d="M35.57 566.93 C26.75 566.93 18.28 563.68 11.73 557.76 L10.65 556.83 C10.16 556.41 9.73 555.93 9.36 555.42 C3.31
						 548.83 0 540.33 0 531.37 C0 521.88 3.69 512.95 10.41 506.23 C10.52 506.12 10.63 506.02 10.75 505.92 C17.44
						 499.41 26.24 495.82 35.57 495.82 C51.31 495.82 64.99 505.93 69.59 520.98 C70.62 524.33 71.14 527.83 71.14
						 531.38 C71.14 540.87 67.45 549.8 60.73 556.53 C53.98 563.24 45.05 566.93 35.57 566.93 ZM22.48 544.95 L22.77
						 545.2 C22.82 545.23 22.85 545.27 22.89 545.31 C26.37 548.46 30.87 550.19 35.56 550.19 C40.58 550.19 45.31
						 548.23 48.89 544.67 C52.43 541.12 54.39 536.39 54.39 531.36 C54.39 529.47 54.11 527.63 53.57 525.86 C51.14
						 517.89 43.89 512.53 35.56 512.53 C30.54 512.53 25.82 514.49 22.24 518.05 C22.17 518.12 22.09 518.2 22.02
						 518.27 C18.6 521.79 16.73 526.43 16.73 531.34 C16.73 536.32 18.66 541.03 22.16 544.58 C22.27 544.71 22.38
						 544.83 22.48 544.95 Z" class="st1"/>
		</g>
		<g id="shape12-29" v:mID="12" v:groupContext="shape" transform="translate(279.145,-452.555)">
			<title>시트.12</title>
			<v:userDefs>
				<v:ud v:nameU="msvThemeColors" v:val="VT0(36):26"/>
				<v:ud v:nameU="msvThemeEffects" v:val="VT0(16):26"/>
			</v:userDefs>
			<path d="M35.57 566.93 C26.72 566.93 18.23 563.65 11.65 557.7 C11.59 557.64 11.53 557.59 11.48 557.53 L11.15 557.22 C10.87
						 556.95 10.58 556.67 10.29 556.39 C3.63 549.62 0 540.75 0 531.36 C0 521.87 3.69 512.94 10.41 506.22 C10.52
						 506.11 10.63 506 10.75 505.91 C17.44 499.39 26.24 495.81 35.57 495.81 C51.31 495.81 64.99 505.92 69.59 520.97
						 C70.62 524.32 71.14 527.82 71.14 531.37 C71.14 540.86 67.45 549.79 60.73 556.52 C53.98 563.24 45.05 566.93
						 35.57 566.93 ZM22.96 545.37 C26.43 548.47 30.9 550.19 35.56 550.19 C40.58 550.19 45.31 548.23 48.89 544.67
						 C52.43 541.12 54.39 536.39 54.39 531.36 C54.39 529.47 54.11 527.63 53.57 525.86 C51.14 517.89 43.89 512.53
						 35.56 512.53 C30.54 512.53 25.82 514.49 22.24 518.05 C22.17 518.12 22.09 518.2 22.02 518.27 C18.6 521.79
						 16.73 526.43 16.73 531.34 C16.73 536.32 18.66 541.03 22.16 544.58 C22.3 544.71 22.48 544.89 22.68 545.08
						 L22.96 545.37 Z" class="st1"/>
		</g>
		<g id="shape13-32" v:mID="13" v:groupContext="shape" transform="translate(327.519,-348.419)">
			<title>시트.13</title>
			<v:userDefs>
				<v:ud v:nameU="msvThemeColors" v:val="VT0(36):26"/>
				<v:ud v:nameU="msvThemeEffects" v:val="VT0(16):26"/>
			</v:userDefs>
			<path d="M95.8 566.93 C93.8 566.93 91.84 566.21 90.29 564.86 L3.23 488.58 C1.03 486.65 0 483.72 0.5 480.84 C1 477.96
						 2.98 475.56 5.7 474.5 C18.04 469.67 28.19 459.96 33.56 447.85 C34.72 445.25 37.13 443.41 39.96 442.98 C42.78
						 442.54 45.63 443.58 47.51 445.74 L122.87 531.74 C124.67 533.81 125.35 536.63 124.68 539.29 C124.01 541.96
						 122.08 544.12 119.51 545.09 C112.08 547.88 106.32 553.79 103.72 561.32 C102.81 563.95 100.65 565.96 97.96
						 566.68 C97.24 566.83 96.52 566.93 95.8 566.93 ZM23.5 484.08 L93.28 545.22 C96.04 541.23 99.46 537.75 103.39
						 534.89 L42.67 465.6 C37.57 472.94 31.03 479.25 23.5 484.08 Z" class="st1"/>
		</g>
		<g id="group14-35" transform="translate(355.848,-234.721)" v:mID="14" v:groupContext="group">
			<v:userDefs>
				<v:ud v:nameU="msvThemeColors" v:val="VT0(36):26"/>
				<v:ud v:nameU="msvThemeEffects" v:val="VT0(16):26"/>
			</v:userDefs>
			<title>시트.14</title>
			<g id="shape15-36" v:mID="15" v:groupContext="shape">
				<title>시트.15</title>
				<v:userDefs>
					<v:ud v:nameU="msvThemeColors" v:val="VT0(36):26"/>
					<v:ud v:nameU="msvThemeEffects" v:val="VT0(16):26"/>
				</v:userDefs>
				<path d="M42.94 566.93 L8.37 566.93 C3.74 566.93 0 563.19 0 558.56 L0 487.15 C0 484.08 1.69 481.25 4.39 479.79 L61.58
							 448.88 C64.18 447.48 67.32 447.54 69.84 449.06 C72.38 450.57 73.93 453.3 73.93 456.24 C73.93 465.76
							 78.77 474.3 86.89 479.17 C89.47 480.71 91.01 483.53 90.95 486.53 C90.88 489.53 89.21 492.28 86.56 493.7
							 L51.3 512.76 L51.3 558.55 C51.3 563.18 47.56 566.93 42.94 566.93 ZM16.73 550.19 L34.57 550.19 L34.57
							 507.77 C34.57 504.7 36.25 501.87 38.96 500.41 L67.88 484.78 C63.95 480.25 60.98 474.93 59.18 469.2 L16.73
							 492.14 L16.73 550.19 Z" class="st1"/>
			</g>
			<g id="shape16-39" v:mID="16" v:groupContext="shape" transform="translate(110.172,0)">
				<title>시트.16</title>
				<v:userDefs>
					<v:ud v:nameU="msvThemeColors" v:val="VT0(36):26"/>
					<v:ud v:nameU="msvThemeEffects" v:val="VT0(16):26"/>
				</v:userDefs>
				<path d="M82.63 566.93 L48.06 566.93 C43.44 566.93 39.7 563.19 39.7 558.56 L39.7 512.77 L4.46 493.73 C1.82 492.31
							 0.14 489.57 0.07 486.56 C0 483.56 1.55 480.75 4.12 479.19 C12.23 474.32 17.07 465.76 17.07 456.31 C17.07
							 453.36 18.62 450.6 21.16 449.1 C23.69 447.59 26.82 447.48 29.42 448.89 L86.61 479.8 C89.31 481.26 91
							 484.09 91 487.17 L91 558.57 C91 563.18 87.26 566.93 82.63 566.93 ZM56.44 550.19 L74.28 550.19 L74.28
							 492.15 L31.83 469.21 C30.04 474.95 27.06 480.26 23.14 484.8 L52.06 500.42 C54.76 501.88 56.44 504.71
							 56.44 507.79 L56.44 550.19 Z" class="st1"/>
			</g>
			<g id="shape17-42" v:mID="17" v:groupContext="shape" transform="translate(57.1957,-67.2363)">
				<title>시트.17</title>
				<v:userDefs>
					<v:ud v:nameU="msvThemeColors" v:val="VT0(36):26"/>
					<v:ud v:nameU="msvThemeEffects" v:val="VT0(16):26"/>
				</v:userDefs>
				<path d="M43.4 566.93 C35.52 566.93 27.8 564.79 21.07 560.75 C8.08 552.96 0 538.7 0 523.55 C0.01 518.67 0.81 513.94
							 2.37 509.4 C6.62 497.12 15.99 487.49 28.1 482.95 C32.95 481.09 38.12 480.15 43.4 480.15 C67.27 480.15
							 86.73 499.59 86.79 523.47 C86.79 523.47 86.79 523.48 86.79 523.48 L86.79 523.55 C86.79 538.7 78.72 552.96
							 65.73 560.76 C58.98 564.8 51.27 566.93 43.4 566.93 ZM43.4 496.88 C40.16 496.88 36.99 497.46 34.02 498.59
							 C26.56 501.39 20.8 507.31 18.19 514.84 C17.25 517.62 16.75 520.55 16.73 523.5 C16.73 532.99 21.58 541.53
							 29.69 546.39 C33.83 548.88 38.56 550.18 43.4 550.18 C48.24 550.18 52.98 548.88 57.12 546.39 C65.22 541.53
							 70.06 532.97 70.06 523.53 L78.42 523.46 L70.06 523.47 C70.02 508.82 58.07 496.88 43.4 496.88 Z"
						class="st1"/>
			</g>
		</g>
		<g id="shape21-45" v:mID="21" v:groupContext="shape" transform="translate(4.97573,-21.6206)">
			<title>시트.21</title>
			<v:userDefs>
				<v:ud v:nameU="msvThemeColors" v:val="VT0(36):26"/>
				<v:ud v:nameU="msvThemeEffects" v:val="VT0(16):26"/>
			</v:userDefs>
			<path d="M195.06 566.93 L8.37 566.93 C3.74 566.93 0 563.19 0 558.56 L0 473.99 C0 469.37 3.74 465.63 8.37 465.63 L195.06
						 465.63 C199.69 465.63 203.43 469.37 203.43 473.99 L203.43 558.56 C203.43 563.18 199.69 566.93 195.06 566.93
						 ZM16.73 550.19 L186.7 550.19 L186.7 482.36 L16.73 482.36 L16.73 550.19 Z" class="st1"/>
		</g>
		<g id="shape18-48" v:mID="18" v:groupContext="shape" v:layerMember="0" transform="translate(729.026,315.344) rotate(86)">
			<title>시작/끝.18</title>
			<v:custProps>
				<v:cp v:nameU="Cost" v:lbl="비용" v:prompt="" v:type="7" v:format="@" v:sortKey="" v:invis="false" v:ask="false"
						v:langID="1042" v:cal="0"/>
				<v:cp v:nameU="ProcessNumber" v:lbl="공정 번호" v:prompt="" v:type="2" v:format="" v:sortKey="" v:invis="false"
						v:ask="false" v:langID="1042" v:cal="0"/>
				<v:cp v:nameU="Owner" v:lbl="소유자" v:prompt="" v:type="0" v:format="" v:sortKey="" v:invis="false" v:ask="false"
						v:langID="1042" v:cal="0"/>
				<v:cp v:nameU="Function" v:lbl="함수" v:prompt="" v:type="0" v:format="" v:sortKey="" v:invis="false" v:ask="false"
						v:langID="1042" v:cal="0" v:val="VT4()"/>
				<v:cp v:nameU="StartDate" v:lbl="시작 날짜" v:prompt="" v:type="5" v:format="" v:sortKey="" v:invis="false"
						v:ask="false" v:langID="1042" v:cal="0"/>
				<v:cp v:nameU="EndDate" v:lbl="끝 날짜" v:prompt="" v:type="5" v:format="" v:sortKey="" v:invis="false" v:ask="false"
						v:langID="1042" v:cal="0"/>
				<v:cp v:nameU="Status" v:lbl="상태" v:prompt="" v:type="4" v:format=";시작 안 함;진행 중;완료;지연;입력 대기 중" v:sortKey=""
						v:invis="false" v:ask="false" v:langID="1042" v:cal="0" v:val="VT4()"/>
			</v:custProps>
			<v:userDefs>
				<v:ud v:nameU="visVersion" v:prompt="" v:val="VT0(14):26"/>
				<v:ud v:nameU="DefaultWidth" v:prompt="" v:val="VT0(0.98425196850394):24"/>
				<v:ud v:nameU="DefaultHeight" v:prompt="" v:val="VT0(0.39370078740157):24"/>
				<v:ud v:nameU="ResizeTxtHeight" v:prompt="" v:val="VT0(0.39370078740157):24"/>
				<v:ud v:nameU="msvThemeColors" v:val="VT0(36):26"/>
				<v:ud v:nameU="msvThemeEffects" v:val="VT0(16):26"/>
			</v:userDefs>
			<path d="M8.5 566.93 L87.16 566.93 A8.50394 8.50394 -180 1 0 87.16 549.92 L8.5 549.92 A8.50394 8.50394 -180 1 0 8.5 566.93
						 Z" class="st2"/>
		</g>
		<g id="shape19-51" v:mID="19" v:groupContext="shape" v:layerMember="0" transform="translate(637.254,499.774) rotate(137.5)">
			<title>시작/끝.19</title>
			<v:custProps>
				<v:cp v:nameU="Cost" v:lbl="비용" v:prompt="" v:type="7" v:format="@" v:sortKey="" v:invis="false" v:ask="false"
						v:langID="1042" v:cal="0"/>
				<v:cp v:nameU="ProcessNumber" v:lbl="공정 번호" v:prompt="" v:type="2" v:format="" v:sortKey="" v:invis="false"
						v:ask="false" v:langID="1042" v:cal="0"/>
				<v:cp v:nameU="Owner" v:lbl="소유자" v:prompt="" v:type="0" v:format="" v:sortKey="" v:invis="false" v:ask="false"
						v:langID="1042" v:cal="0"/>
				<v:cp v:nameU="Function" v:lbl="함수" v:prompt="" v:type="0" v:format="" v:sortKey="" v:invis="false" v:ask="false"
						v:langID="1042" v:cal="0" v:val="VT4()"/>
				<v:cp v:nameU="StartDate" v:lbl="시작 날짜" v:prompt="" v:type="5" v:format="" v:sortKey="" v:invis="false"
						v:ask="false" v:langID="1042" v:cal="0"/>
				<v:cp v:nameU="EndDate" v:lbl="끝 날짜" v:prompt="" v:type="5" v:format="" v:sortKey="" v:invis="false" v:ask="false"
						v:langID="1042" v:cal="0"/>
				<v:cp v:nameU="Status" v:lbl="상태" v:prompt="" v:type="4" v:format=";시작 안 함;진행 중;완료;지연;입력 대기 중" v:sortKey=""
						v:invis="false" v:ask="false" v:langID="1042" v:cal="0" v:val="VT4()"/>
			</v:custProps>
			<v:userDefs>
				<v:ud v:nameU="visVersion" v:prompt="" v:val="VT0(14):26"/>
				<v:ud v:nameU="DefaultWidth" v:prompt="" v:val="VT0(0.98425196850394):24"/>
				<v:ud v:nameU="DefaultHeight" v:prompt="" v:val="VT0(0.39370078740157):24"/>
				<v:ud v:nameU="ResizeTxtHeight" v:prompt="" v:val="VT0(0.39370078740157):24"/>
				<v:ud v:nameU="msvThemeColors" v:val="VT0(36):26"/>
				<v:ud v:nameU="msvThemeEffects" v:val="VT0(16):26"/>
			</v:userDefs>
			<path d="M8.22 566.93 L87.44 566.93 A8.21931 8.21931 -180 0 0 87.44 550.49 L8.22 550.49 A8.21931 8.21931 -180 1 0 8.22
						 566.93 Z" class="st2"/>
		</g>
		<g id="shape1-54" v:mID="1" v:groupContext="shape" transform="translate(418.677,-65.1969)">
			<title>삼각형: 자유</title>
			<v:userDefs>
				<v:ud v:nameU="visVersion" v:val="VT0(14):26"/>
				<v:ud v:nameU="msvThemeColors" v:val="VT0(36):26"/>
			</v:userDefs>
			<path d="M0 498.9 L91.56 498.9 L46.77 566.93 L0 498.9 Z" class="st3"/>
		</g>
		<g id="shape2-56" v:mID="2" v:groupContext="shape" v:layerMember="0" transform="translate(451.417,-107.717)">
			<title>프로세스</title>
			<v:custProps>
				<v:cp v:nameU="Cost" v:lbl="비용" v:prompt="" v:type="7" v:format="@" v:sortKey="" v:invis="false" v:ask="false"
						v:langID="1042" v:cal="0"/>
				<v:cp v:nameU="ProcessNumber" v:lbl="공정 번호" v:prompt="" v:type="2" v:format="" v:sortKey="" v:invis="false"
						v:ask="false" v:langID="1042" v:cal="0"/>
				<v:cp v:nameU="Owner" v:lbl="소유자" v:prompt="" v:type="0" v:format="" v:sortKey="" v:invis="false" v:ask="false"
						v:langID="1042" v:cal="0"/>
				<v:cp v:nameU="Function" v:lbl="함수" v:prompt="" v:type="0" v:format="" v:sortKey="" v:invis="false" v:ask="false"
						v:langID="1042" v:cal="0" v:val="VT4()"/>
				<v:cp v:nameU="StartDate" v:lbl="시작 날짜" v:prompt="" v:type="5" v:format="" v:sortKey="" v:invis="false"
						v:ask="false" v:langID="1042" v:cal="0"/>
				<v:cp v:nameU="EndDate" v:lbl="끝 날짜" v:prompt="" v:type="5" v:format="" v:sortKey="" v:invis="false" v:ask="false"
						v:langID="1042" v:cal="0"/>
				<v:cp v:nameU="Status" v:lbl="상태" v:prompt="" v:type="4" v:format=";시작 안 함;진행 중;완료;지연;입력 대기 중" v:sortKey=""
						v:invis="false" v:ask="false" v:langID="1042" v:cal="0" v:val="VT4()"/>
			</v:custProps>
			<v:userDefs>
				<v:ud v:nameU="visVersion" v:prompt="" v:val="VT0(14):26"/>
				<v:ud v:nameU="DefaultWidth" v:prompt="" v:val="VT0(0.98425196850394):24"/>
				<v:ud v:nameU="DefaultHeight" v:prompt="" v:val="VT0(0.59055118110236):24"/>
				<v:ud v:nameU="ResizeTxtHeight" v:prompt="" v:val="VT0(0.59055118110236):24"/>
				<v:ud v:nameU="msvThemeColors" v:val="VT0(36):26"/>
				<v:ud v:nameU="msvThemeEffects" v:val="VT0(16):26"/>
			</v:userDefs>
			<rect x="0" y="467.717" width="26.0787" height="99.2126" class="st2"/>
		</g>
		<g id="shape20-59" v:mID="20" v:groupContext="shape" v:layerMember="0" transform="translate(373.748,-124.724)">
			<title>프로세스.6</title>
			<v:custProps>
				<v:cp v:nameU="Cost" v:lbl="비용" v:prompt="" v:type="7" v:format="@" v:sortKey="" v:invis="false" v:ask="false"
						v:langID="1042" v:cal="0"/>
				<v:cp v:nameU="ProcessNumber" v:lbl="공정 번호" v:prompt="" v:type="2" v:format="" v:sortKey="" v:invis="false"
						v:ask="false" v:langID="1042" v:cal="0"/>
				<v:cp v:nameU="Owner" v:lbl="소유자" v:prompt="" v:type="0" v:format="" v:sortKey="" v:invis="false" v:ask="false"
						v:langID="1042" v:cal="0"/>
				<v:cp v:nameU="Function" v:lbl="함수" v:prompt="" v:type="0" v:format="" v:sortKey="" v:invis="false" v:ask="false"
						v:langID="1042" v:cal="0" v:val="VT4()"/>
				<v:cp v:nameU="StartDate" v:lbl="시작 날짜" v:prompt="" v:type="5" v:format="" v:sortKey="" v:invis="false"
						v:ask="false" v:langID="1042" v:cal="0"/>
				<v:cp v:nameU="EndDate" v:lbl="끝 날짜" v:prompt="" v:type="5" v:format="" v:sortKey="" v:invis="false" v:ask="false"
						v:langID="1042" v:cal="0"/>
				<v:cp v:nameU="Status" v:lbl="상태" v:prompt="" v:type="4" v:format=";시작 안 함;진행 중;완료;지연;입력 대기 중" v:sortKey=""
						v:invis="false" v:ask="false" v:langID="1042" v:cal="0" v:val="VT4()"/>
			</v:custProps>
			<v:userDefs>
				<v:ud v:nameU="visVersion" v:prompt="" v:val="VT0(14):26"/>
				<v:ud v:nameU="DefaultWidth" v:prompt="" v:val="VT0(0.98425196850394):24"/>
				<v:ud v:nameU="DefaultHeight" v:prompt="" v:val="VT0(0.59055118110236):24"/>
				<v:ud v:nameU="ResizeTxtHeight" v:prompt="" v:val="VT0(0.59055118110236):24"/>
				<v:ud v:nameU="msvThemeColors" v:val="VT0(36):26"/>
				<v:ud v:nameU="msvThemeEffects" v:val="VT0(16):26"/>
			</v:userDefs>
			<rect x="0" y="493.228" width="12.7559" height="73.7008" class="st4"/>
		</g>
		<g id="shape22-62" v:mID="22" v:groupContext="shape" v:layerMember="0" transform="translate(373.748,-185.669)">
			<title>프로세스.8</title>
			<v:custProps>
				<v:cp v:nameU="Cost" v:lbl="비용" v:prompt="" v:type="7" v:format="@" v:sortKey="" v:invis="false" v:ask="false"
						v:langID="1042" v:cal="0"/>
				<v:cp v:nameU="ProcessNumber" v:lbl="공정 번호" v:prompt="" v:type="2" v:format="" v:sortKey="" v:invis="false"
						v:ask="false" v:langID="1042" v:cal="0"/>
				<v:cp v:nameU="Owner" v:lbl="소유자" v:prompt="" v:type="0" v:format="" v:sortKey="" v:invis="false" v:ask="false"
						v:langID="1042" v:cal="0"/>
				<v:cp v:nameU="Function" v:lbl="함수" v:prompt="" v:type="0" v:format="" v:sortKey="" v:invis="false" v:ask="false"
						v:langID="1042" v:cal="0" v:val="VT4()"/>
				<v:cp v:nameU="StartDate" v:lbl="시작 날짜" v:prompt="" v:type="5" v:format="" v:sortKey="" v:invis="false"
						v:ask="false" v:langID="1042" v:cal="0"/>
				<v:cp v:nameU="EndDate" v:lbl="끝 날짜" v:prompt="" v:type="5" v:format="" v:sortKey="" v:invis="false" v:ask="false"
						v:langID="1042" v:cal="0"/>
				<v:cp v:nameU="Status" v:lbl="상태" v:prompt="" v:type="4" v:format=";시작 안 함;진행 중;완료;지연;입력 대기 중" v:sortKey=""
						v:invis="false" v:ask="false" v:langID="1042" v:cal="0" v:val="VT4()"/>
			</v:custProps>
			<v:userDefs>
				<v:ud v:nameU="visVersion" v:prompt="" v:val="VT0(14):26"/>
				<v:ud v:nameU="DefaultWidth" v:prompt="" v:val="VT0(0.98425196850394):24"/>
				<v:ud v:nameU="DefaultHeight" v:prompt="" v:val="VT0(0.59055118110236):24"/>
				<v:ud v:nameU="ResizeTxtHeight" v:prompt="" v:val="VT0(0.59055118110236):24"/>
				<v:ud v:nameU="msvThemeColors" v:val="VT0(36):26"/>
				<v:ud v:nameU="msvThemeEffects" v:val="VT0(16):26"/>
			</v:userDefs>
			<rect x="0" y="554.173" width="50.0315" height="12.7559" class="st4"/>
		</g>
		<g id="shape23-65" v:mID="23" v:groupContext="shape" v:layerMember="0" transform="translate(373.748,-155.785)">
			<title>프로세스.12</title>
			<v:custProps>
				<v:cp v:nameU="Cost" v:lbl="비용" v:prompt="" v:type="7" v:format="@" v:sortKey="" v:invis="false" v:ask="false"
						v:langID="1042" v:cal="0"/>
				<v:cp v:nameU="ProcessNumber" v:lbl="공정 번호" v:prompt="" v:type="2" v:format="" v:sortKey="" v:invis="false"
						v:ask="false" v:langID="1042" v:cal="0"/>
				<v:cp v:nameU="Owner" v:lbl="소유자" v:prompt="" v:type="0" v:format="" v:sortKey="" v:invis="false" v:ask="false"
						v:langID="1042" v:cal="0"/>
				<v:cp v:nameU="Function" v:lbl="함수" v:prompt="" v:type="0" v:format="" v:sortKey="" v:invis="false" v:ask="false"
						v:langID="1042" v:cal="0" v:val="VT4()"/>
				<v:cp v:nameU="StartDate" v:lbl="시작 날짜" v:prompt="" v:type="5" v:format="" v:sortKey="" v:invis="false"
						v:ask="false" v:langID="1042" v:cal="0"/>
				<v:cp v:nameU="EndDate" v:lbl="끝 날짜" v:prompt="" v:type="5" v:format="" v:sortKey="" v:invis="false" v:ask="false"
						v:langID="1042" v:cal="0"/>
				<v:cp v:nameU="Status" v:lbl="상태" v:prompt="" v:type="4" v:format=";시작 안 함;진행 중;완료;지연;입력 대기 중" v:sortKey=""
						v:invis="false" v:ask="false" v:langID="1042" v:cal="0" v:val="VT4()"/>
			</v:custProps>
			<v:userDefs>
				<v:ud v:nameU="visVersion" v:prompt="" v:val="VT0(14):26"/>
				<v:ud v:nameU="DefaultWidth" v:prompt="" v:val="VT0(0.98425196850394):24"/>
				<v:ud v:nameU="DefaultHeight" v:prompt="" v:val="VT0(0.59055118110236):24"/>
				<v:ud v:nameU="ResizeTxtHeight" v:prompt="" v:val="VT0(0.59055118110236):24"/>
				<v:ud v:nameU="msvThemeColors" v:val="VT0(36):26"/>
				<v:ud v:nameU="msvThemeEffects" v:val="VT0(16):26"/>
			</v:userDefs>
			<rect x="0" y="554.173" width="48.8976" height="12.7559" class="st4"/>
		</g>
	</g>
</svg>
