<?xml version="1.0" ?><!DOCTYPE svg  PUBLIC '-//W3C//DTD SVG 1.1//EN'  'http://www.w3.org/Graphics/SVG/1.1/DTD/svg11.dtd'><svg enable-background="new 0 0 48 48" height="48px" id="Layer_4" version="1.1" viewBox="0 0 48 48" width="48px" xml:space="preserve" xmlns="http://www.w3.org/2000/svg" xmlns:xlink="http://www.w3.org/1999/xlink"><path d="M17.042,12.531" fill="#241F20"/><g><path d="M36.496,7.66l-3.787-3.445l-4.512-4.1H7.273v47.771h33.453V11.504L36.496,7.66z M36.496,43.785H11.504   V4.214h16.693v7.29h8.299V43.785z" fill="#241F20"/><path d="M27.71,16.9v-0.059H16.906v0.041c-0.067-0.01-0.126-0.041-0.195-0.041c-0.826,0-1.497,0.671-1.497,1.497   c0,0.826,0.671,1.497,1.497,1.497c0.069,0,0.128-0.03,0.195-0.041v0.041H27.71v-0.059c0.098,0.021,0.188,0.059,0.292,0.059   c0.826,0,1.498-0.671,1.498-1.497c0-0.826-0.672-1.497-1.498-1.497C27.898,16.841,27.808,16.879,27.71,16.9z" fill="#241F20"/><path d="M16.857,23.097c-0.067-0.01-0.126-0.041-0.195-0.041c-0.826,0-1.497,0.671-1.497,1.497   s0.671,1.497,1.497,1.497c0.069,0,0.128-0.03,0.195-0.04v0.04h14.139c0.826,0,1.497-0.671,1.497-1.497s-0.671-1.497-1.497-1.497   H16.857V23.097z" fill="#241F20"/><path d="M31.045,29.19H16.906v0.041c-0.067-0.011-0.126-0.041-0.195-0.041c-0.826,0-1.497,0.671-1.497,1.497   c0,0.825,0.671,1.497,1.497,1.497c0.069,0,0.128-0.031,0.195-0.041v0.041h14.139c0.826,0,1.497-0.672,1.497-1.497   C32.542,29.861,31.871,29.19,31.045,29.19z" fill="#241F20"/><path d="M30.996,35.568H16.857v0.039c-0.067-0.008-0.126-0.039-0.195-0.039c-0.826,0-1.497,0.672-1.497,1.497   c0,0.826,0.671,1.497,1.497,1.497c0.069,0,0.128-0.03,0.195-0.039v0.039h14.139c0.826,0,1.497-0.671,1.497-1.497   C32.493,36.24,31.822,35.568,30.996,35.568z" fill="#241F20"/></g></svg>